<?xml version="1.0" standalone="no"?>
<!DOCTYPE svg PUBLIC "-//W3C//DTD SVG 20010904//EN"
 "http://www.w3.org/TR/2001/REC-SVG-20010904/DTD/svg10.dtd">
<svg version="1.0" xmlns="http://www.w3.org/2000/svg"
 width="3040.000000pt" height="3040.000000pt" viewBox="0 0 3040.000000 3040.000000"
 preserveAspectRatio="xMidYMid meet">
<metadata>
Created by potrace 1.14, written by Peter Selinger 2001-2017
</metadata>
<g transform="translate(0.000000,3040.000000) scale(0.100000,-0.100000)"
fill="#000000" stroke="none">
<path d="M6327 17823 c-1797 -4839 -3267 -8801 -3267 -8805 0 -5 1425 -8 3168
-8 l3167 0 390 1095 390 1095 2576 0 2576 0 224 -627 c123 -346 298 -837 389
-1093 l166 -465 3197 -3 3197 -2 -11 27 c-6 16 -181 485 -389 1043 -208 558
-383 1027 -389 1043 l-11 27 1270 0 1270 0 0 -1070 0 -1070 1155 0 1155 0 0
3420 0 3420 -1155 0 -1155 0 -2 -1072 -3 -1073 -1743 0 -1744 0 -119 320 c-66
176 -131 350 -145 387 l-25 67 -72 -40 c-117 -66 -363 -183 -498 -237 -690
-279 -1461 -377 -2204 -282 -1130 145 -2158 723 -2873 1615 -621 776 -962
1748 -962 2745 0 1435 700 2776 1882 3606 329 231 765 449 1148 572 1117 361
2332 266 3365 -263 136 -70 314 -173 405 -234 l45 -31 5 908 5 907 510 3 c544
3 757 -6 914 -38 262 -53 440 -146 592 -308 117 -125 186 -261 232 -456 29
-127 31 -468 3 -596 -48 -220 -123 -360 -270 -505 -136 -134 -249 -198 -458
-259 -160 -46 -276 -56 -663 -56 l-354 0 147 -148 c355 -356 612 -717 836
-1172 469 -950 574 -2062 292 -3090 l-34 -124 191 -428 191 -428 1968 0 1968
0 -865 1729 -864 1730 102 73 c831 593 1318 1508 1407 2642 22 284 11 718 -26
1011 -134 1071 -689 1964 -1559 2508 -551 344 -1195 553 -1955 631 -317 33
-540 36 -3167 36 l-2633 0 -2 -1646 -3 -1646 -635 1704 -635 1703 -3170 3
-3170 2 -3268 -8797z m7265 -183 c427 -1323 777 -2408 777 -2412 1 -5 -717 -8
-1595 -8 -1272 0 -1595 3 -1591 13 2 6 348 1093 768 2415 l764 2403 50 -3 50
-3 777 -2405z"/>
<path d="M18025 21533 c-1160 -38 -2143 -512 -2755 -1328 -386 -515 -599
-1081 -665 -1764 -31 -317 -16 -769 35 -1080 140 -854 579 -1596 1235 -2091
535 -404 1151 -633 1895 -706 222 -22 668 -22 890 0 710 70 1297 281 1820 656
311 223 612 544 820 874 137 218 267 497 350 751 163 502 223 1117 164 1691
l-7 64 -1973 0 -1974 0 0 -700 0 -700 820 0 c451 0 820 -2 820 -5 0 -3 -13
-31 -29 -63 -103 -202 -314 -401 -537 -507 -414 -197 -1010 -189 -1419 18
-303 153 -541 433 -664 781 -112 316 -126 767 -36 1114 118 458 451 825 875
966 540 179 1176 64 1528 -278 41 -39 90 -92 110 -118 l36 -48 1174 0 1174 0
-7 33 c-14 64 -96 307 -136 403 -104 250 -267 526 -440 745 -105 133 -364 392
-499 498 -530 420 -1170 678 -1895 765 -135 16 -493 37 -580 34 -27 -1 -86 -3
-130 -5z"/>
<path d="M2270 8740 l0 -60 12705 0 12705 0 0 60 0 60 -12705 0 -12705 0 0
-60z"/>
<path d="M7620 7835 l0 -565 55 0 55 0 0 238 c0 270 7 312 65 379 94 110 282
124 380 29 68 -65 75 -103 75 -398 l0 -248 55 0 55 0 0 248 c0 332 -13 394
-97 473 -50 48 -85 65 -162 79 -120 22 -252 -12 -327 -84 l-44 -43 0 229 0
228 -55 0 -55 0 0 -565z"/>
<path d="M12150 7835 l0 -565 55 0 55 0 0 565 0 565 -55 0 -55 0 0 -565z"/>
<path d="M13510 7835 l0 -565 50 0 50 0 0 70 c0 39 3 70 8 70 4 0 20 -16 35
-35 62 -78 196 -124 321 -110 70 7 162 46 214 90 143 121 176 380 70 547 -126
200 -431 236 -595 71 l-43 -42 0 234 0 235 -55 0 -55 0 0 -565z m549 110 c172
-94 206 -358 65 -499 -155 -155 -428 -89 -489 117 -50 168 22 339 166 396 79
31 185 25 258 -14z"/>
<path d="M15440 7835 l0 -565 55 0 55 0 0 565 0 565 -55 0 -55 0 0 -565z"/>
<path d="M19250 8167 l0 -233 -49 47 c-69 66 -141 92 -256 92 -166 -1 -279
-67 -350 -207 -40 -78 -40 -79 -40 -195 0 -110 2 -120 32 -183 55 -117 151
-192 278 -218 131 -27 275 16 354 107 l41 46 0 -77 0 -76 50 0 50 0 0 565 0
565 -55 0 -55 0 0 -233z m-151 -222 c57 -32 90 -65 124 -129 19 -35 22 -57 22
-146 0 -112 -12 -149 -69 -217 -65 -78 -209 -114 -314 -79 -68 23 -143 91
-173 158 -33 74 -34 201 -1 274 30 65 95 129 158 154 73 30 182 23 253 -15z"/>
<path d="M24566 8379 c-30 -24 -35 -72 -10 -107 12 -17 25 -22 58 -22 53 0 80
26 80 77 0 66 -73 96 -128 52z"/>
<path d="M27130 8167 l0 -233 -49 47 c-69 66 -141 92 -256 92 -166 -1 -279
-67 -350 -207 -40 -78 -40 -79 -40 -195 0 -110 2 -120 32 -183 55 -117 151
-192 278 -218 131 -27 275 16 354 107 l41 46 0 -77 0 -76 50 0 50 0 0 565 0
565 -55 0 -55 0 0 -233z m-151 -222 c57 -32 90 -65 124 -129 19 -35 22 -57 22
-146 0 -112 -12 -149 -69 -217 -65 -78 -209 -114 -314 -79 -68 23 -143 91
-173 158 -33 74 -34 201 -1 274 30 65 95 129 158 154 73 30 182 23 253 -15z"/>
<path d="M2751 8298 c-29 -66 -452 -991 -463 -1011 -8 -17 -4 -18 54 -15 l62
3 61 137 60 138 300 -3 299 -2 61 -135 61 -135 62 -3 61 -3 -19 43 c-10 24
-120 264 -243 533 l-224 490 -57 3 -56 3 -19 -43z m203 -371 l124 -277 -253 0
-253 0 120 268 c66 147 122 273 125 280 3 7 7 11 9 9 2 -2 60 -128 128 -280z"/>
<path d="M3550 7805 l0 -535 355 0 355 0 0 50 0 50 -295 0 -295 0 0 485 0 485
-60 0 -60 0 0 -535z"/>
<path d="M4840 7806 l0 -536 60 0 60 0 0 170 0 170 184 0 184 0 119 -167 118
-168 63 -3 c34 -2 62 -1 62 2 0 3 -57 85 -126 181 -69 97 -124 178 -123 179 2
2 25 13 51 25 65 31 125 92 156 159 23 49 26 71 26 152 0 81 -3 103 -25 150
-34 73 -76 120 -139 154 -93 51 -135 57 -412 63 l-258 6 0 -537z m560 406 c63
-25 121 -79 145 -134 17 -43 20 -145 4 -203 -7 -26 -28 -57 -59 -87 -71 -68
-115 -79 -342 -85 l-188 -5 0 272 0 272 193 -4 c166 -4 200 -8 247 -26z"/>
<path d="M11296 8325 c-88 -24 -176 -75 -240 -139 -162 -158 -203 -413 -103
-626 40 -87 148 -195 237 -238 191 -94 447 -78 615 38 l45 31 0 204 0 205 -55
0 -55 0 -2 -182 -3 -182 -46 -23 c-25 -13 -82 -31 -126 -40 -205 -43 -414 52
-501 227 -99 197 -49 422 123 552 73 55 145 80 249 86 135 7 229 -19 320 -91
l39 -31 34 39 34 39 -38 33 c-50 42 -124 79 -198 98 -73 19 -260 19 -329 0z"/>
<path d="M16110 8290 l0 -50 185 0 185 0 0 -485 0 -485 55 0 55 0 2 483 3 482
188 3 187 2 0 50 0 50 -430 0 -430 0 0 -50z"/>
<path d="M22343 7973 c5 -383 8 -418 52 -503 69 -133 209 -210 383 -210 236 0
397 127 431 340 6 36 11 216 11 403 l0 337 -54 0 -55 0 -3 -367 c-4 -399 -5
-410 -64 -495 -98 -141 -366 -157 -494 -28 -82 81 -84 91 -88 518 l-3 372 -61
0 -60 0 5 -367z"/>
<path d="M24990 8160 l0 -90 -70 0 -70 0 0 -45 0 -45 70 0 70 0 0 -275 c0
-304 3 -321 63 -383 62 -64 204 -80 297 -32 45 23 47 28 25 70 -18 35 -13 34
-58 15 -47 -19 -120 -19 -158 1 -54 28 -59 56 -59 344 l0 260 120 0 120 0 0
45 0 45 -120 0 -120 0 0 90 0 90 -55 0 -55 0 0 -90z"/>
<path d="M6150 8067 c-81 -19 -145 -55 -199 -112 -85 -90 -117 -184 -108 -314
7 -106 37 -179 102 -249 64 -69 137 -109 230 -124 183 -31 362 57 440 217 24
49 30 75 33 153 6 120 -9 185 -58 261 -89 137 -271 207 -440 168z m236 -120
c56 -28 92 -66 127 -131 19 -35 22 -57 22 -146 0 -112 -12 -149 -69 -217 -66
-79 -209 -114 -317 -78 -68 23 -139 89 -170 158 -33 73 -33 200 -1 273 30 65
95 129 158 154 70 29 180 23 250 -13z"/>
<path d="M7015 8069 c-145 -24 -225 -104 -225 -226 1 -128 65 -177 291 -223
77 -16 154 -37 172 -47 46 -27 62 -66 48 -113 -21 -69 -81 -99 -201 -99 -92
-1 -146 11 -226 50 -34 16 -64 29 -68 29 -3 0 -15 -19 -27 -41 -17 -34 -18
-43 -7 -51 141 -95 384 -114 528 -41 78 40 114 100 113 189 -1 119 -62 168
-261 210 -217 45 -252 66 -252 150 0 80 73 124 208 124 69 0 195 -30 207 -50
12 -20 31 -9 53 32 26 48 26 47 -56 78 -93 35 -200 46 -297 29z"/>
<path d="M8835 8070 c-94 -17 -225 -76 -225 -102 0 -6 9 -25 20 -43 l20 -33
78 40 c65 33 90 40 158 45 148 10 231 -39 254 -154 22 -103 33 -97 -190 -103
-187 -5 -197 -7 -247 -33 -65 -34 -100 -80 -115 -148 -34 -170 118 -296 332
-275 80 9 144 36 193 84 l37 36 0 -57 0 -57 50 0 51 0 -3 308 c-3 307 -3 308
-28 357 -28 55 -94 107 -158 125 -54 15 -170 20 -227 10z m315 -490 c0 -100
-53 -175 -147 -210 -134 -50 -284 -3 -309 97 -9 35 4 90 29 118 38 44 86 54
265 55 l162 0 0 -60z"/>
<path d="M9867 8070 c-67 -12 -150 -54 -186 -95 -17 -19 -33 -35 -36 -35 -3 0
-5 29 -5 65 l0 65 -50 0 -50 0 0 -400 0 -400 55 0 55 0 0 238 c0 270 7 312 65
379 94 110 282 124 380 29 68 -65 75 -103 75 -398 l0 -248 55 0 55 0 0 248 c0
332 -13 394 -97 473 -49 47 -84 65 -158 78 -65 12 -88 12 -158 1z"/>
<path d="M12790 8067 c-81 -19 -145 -55 -199 -112 -85 -90 -117 -184 -108
-314 7 -106 37 -179 102 -249 64 -69 137 -109 230 -124 183 -31 362 57 440
217 24 49 30 75 33 153 6 120 -9 185 -58 261 -89 137 -271 207 -440 168z m236
-120 c56 -28 92 -66 127 -131 19 -35 22 -57 22 -146 0 -112 -12 -149 -69 -217
-66 -79 -209 -114 -317 -78 -68 23 -139 89 -170 158 -33 73 -33 200 -1 273 30
65 95 129 158 154 70 29 180 23 250 -13z"/>
<path d="M14725 8070 c-94 -17 -225 -76 -225 -102 0 -6 9 -25 20 -43 l20 -33
78 40 c65 33 90 40 158 45 148 10 231 -39 254 -154 22 -103 33 -97 -190 -103
-187 -5 -197 -7 -247 -33 -65 -34 -100 -80 -115 -148 -34 -170 118 -296 332
-275 80 9 144 36 193 84 l37 36 0 -57 0 -57 50 0 51 0 -3 308 c-3 307 -3 308
-28 357 -28 55 -94 107 -158 125 -54 15 -170 20 -227 10z m315 -490 c0 -100
-53 -175 -147 -210 -134 -50 -284 -3 -309 97 -9 35 4 90 29 118 38 44 86 54
265 55 l162 0 0 -60z"/>
<path d="M17437 8070 c-71 -12 -132 -46 -177 -98 l-40 -47 0 73 0 72 -50 0
-50 0 0 -400 0 -400 55 0 55 0 0 233 c0 250 7 300 53 368 35 52 104 90 176 96
l61 6 0 53 c0 60 4 58 -83 44z"/>
<path d="M17915 8070 c-94 -17 -225 -76 -225 -102 0 -6 9 -25 20 -43 l20 -33
78 40 c65 33 90 40 158 45 148 10 231 -39 254 -154 22 -103 33 -97 -190 -103
-187 -5 -197 -7 -247 -33 -65 -34 -100 -80 -115 -148 -34 -170 118 -296 332
-275 80 9 144 36 193 84 l37 36 0 -57 0 -57 50 0 51 0 -3 308 c-3 307 -3 308
-28 357 -28 55 -94 107 -158 125 -54 15 -170 20 -227 10z m315 -490 c0 -100
-53 -175 -147 -210 -134 -50 -284 -3 -309 97 -9 35 4 90 29 118 38 44 86 54
265 55 l162 0 0 -60z"/>
<path d="M19880 8066 c-118 -26 -209 -100 -263 -214 -30 -63 -32 -74 -32 -177
0 -91 4 -120 23 -167 30 -74 105 -156 179 -196 151 -80 367 -62 478 41 l45 42
-29 33 -29 34 -47 -36 c-124 -95 -320 -86 -429 20 -43 42 -73 98 -82 153 l-7
41 337 0 336 0 0 40 c0 196 -133 360 -316 390 -73 12 -94 12 -164 -4z m195
-103 c65 -22 136 -93 158 -158 32 -92 55 -85 -264 -85 l-281 0 7 38 c16 89 88
176 172 207 52 19 150 18 208 -2z"/>
<path d="M20897 8070 c-71 -12 -132 -46 -177 -98 l-40 -47 0 73 0 72 -50 0
-50 0 0 -400 0 -400 55 0 55 0 0 233 c0 250 7 300 53 368 35 52 104 90 176 96
l61 6 0 53 c0 60 4 58 -83 44z"/>
<path d="M21335 8069 c-145 -24 -225 -104 -225 -226 1 -128 65 -177 291 -223
77 -16 154 -37 172 -47 46 -27 62 -66 48 -113 -21 -69 -81 -99 -201 -99 -92
-1 -146 11 -226 50 -34 16 -64 29 -68 29 -3 0 -15 -19 -27 -41 -17 -34 -18
-43 -7 -51 141 -95 384 -114 528 -41 78 40 114 100 113 189 -1 119 -62 168
-261 210 -217 45 -252 66 -252 150 0 80 73 124 208 124 69 0 195 -30 207 -50
12 -20 31 -9 53 32 26 48 26 47 -56 78 -93 35 -200 46 -297 29z"/>
<path d="M23867 8070 c-67 -12 -150 -54 -186 -95 -17 -19 -33 -35 -36 -35 -3
0 -5 29 -5 65 l0 65 -50 0 -50 0 0 -400 0 -400 55 0 55 0 0 238 c0 270 7 312
65 379 94 110 282 124 380 29 68 -65 75 -103 75 -398 l0 -248 55 0 55 0 0 248
c0 332 -13 394 -97 473 -49 47 -84 65 -158 78 -65 12 -88 12 -158 1z"/>
<path d="M25810 8066 c-118 -26 -209 -100 -263 -214 -30 -63 -32 -74 -32 -177
0 -91 4 -120 23 -167 30 -74 105 -156 179 -196 151 -80 367 -62 478 41 l45 42
-29 33 -29 34 -47 -36 c-124 -95 -320 -86 -429 20 -43 42 -73 98 -82 153 l-7
41 337 0 336 0 0 40 c0 196 -133 360 -316 390 -73 12 -94 12 -164 -4z m195
-103 c65 -22 136 -93 158 -158 32 -92 55 -85 -264 -85 l-281 0 7 38 c16 89 88
176 172 207 52 19 150 18 208 -2z"/>
<path d="M24560 7670 l0 -400 55 0 55 0 0 400 0 400 -55 0 -55 0 0 -400z"/>
</g>
</svg>
